<svg id="Layer_1" data-name="Layer 1" xmlns="http://www.w3.org/2000/svg" width="485" height="126" viewBox="0 0 485 126"><title>Artboard 3</title><path d="M58,39.13c2.11-13.93,17.62-17,26-17.41v-.1c-13.19,0-24.69-10.35-37.78-10.35C39.64,11.27,35,13.91,35,19.5c0,5,3.69,6.65,7,6.65a10.2,10.2,0,0,0,8-4.22C62.33,27.52,54.31,43,42,43c-7.81,0-15.62-5.91-15.62-15.2,0-9.81,8.13-17.52,19.53-17.52,13.4,0,26.17,10.56,38.73,10.56,2.32,0,3.37-1.38,3.37-2.64,0-1.69-1.79-3.38-4.75-1.58-2.42-4.54,1.06-8.24,4.86-8.24,2.85,0,5.8,1.69,5.8,5.7S89.66,20,87.66,20.67A32,32,0,0,1,93.25,20c15.3,0,25.43,5.7,25.43,18.68,0,21.21-24.69,29.44-41.16,26.81l.11-.85c15.09,1.27,19.1-17.73,19.1-30.81,0-7.28-2.64-12.67-7.91-12.67-4.22,0-7.39,3.38-9.19,14.78l-5.69,36.3c-4.22,26.91-32.72,31.24-46.86,31.24-10.76,0-23.53-7.18-23.53-21C3.55,70.16,14.31,62.46,25,62.46c10.13,0,21.11,6,21.11,16.67,0,7.07-5.39,13-13.72,13-6,0-11.19-4.86-9.29-11.29,5.07-.11,9.08-4.33,9.08-9.92s-4.86-7.6-8.76-7.6c-7.49,0-15.52,7.91-15.52,19,0,11.93,9,20.16,19.74,20.16,13.19,0,22.16-9.18,24.9-27.44Z"/><path d="M175.77,61.61c0,17.52-15.83,33.14-34.61,33.14-15.1,0-25.54-9.92-25.54-23.85,0-18.05,15.51-33,34.5-33C165.22,37.87,175.77,47.68,175.77,61.61ZM156.35,49.69c0-6.23-1.37-11-6.33-11-11.61,0-15.09,33.35-15.09,44.32,0,6.23,1.48,10.87,6.33,10.87C153,92.43,156.35,62.14,156.35,49.69Z"/><path d="M199.51,93.69l-.32.32a24,24,0,0,1-6.33.84c-7.28,0-14.67-3.58-12.35-16.57L186.42,45c.32-2.11-1.37-3.69-4.32-2.74l-.32-.32c3.69-1.79,11.08-4.11,16.15-4.11,6,0,8.44,2.21,7,9.39l-5.8,23.95.42.11c7.07-27,14.14-34.3,24.91-34.3,9.39,0,13.5,5.91,13.5,12.24,0,7.07-5.27,14.15-14.67,14.15-4.74,0-9.28-3-8.65-9.29,3.91,0,7.81-3.7,7.81-8.66,0-3.27-1.69-5.06-4.12-5.06-6.54,0-13.08,12.87-17.62,31.13C198.88,78.81,195.92,91.9,199.51,93.69Z"/><path d="M263.25,38.61h7.38l-.21,1h-7.28l-5.27,31.87c-1.48,9.08-2.54,20.9,2.11,22.69l-.32.32a36.78,36.78,0,0,1-5.17.42c-8.13,0-18.47-3-16.15-16.68l6-38.62h-4.75l.21-1c15.2,0,23.43-5.07,25.85-20h.95Z"/><path d="M276.75,38.61c2.43-14.67,4.65-27.13,20.79-27.13,9.4,0,15.2,4.75,15.2,11.51,0,6.54-4.54,11.71-12.66,11.71-6,0-11.61-5.59-8.76-11.82,3.59.74,6.65-1.58,6.65-5.17,0-2.64-1-5-4.12-5-4.64,0-9.6,5-9.6,10.66,0,9,10.76,11,9.81,15.2h8.87l-.22,1h-7.17l-8.34,53c-2,12.66-8.86,27.12-22.16,27.12-9.08,0-14.25-4.75-14.25-11.4,0-7.81,6.12-11.08,11.93-11.08,5.49,0,10.76,3.59,10,10.76-3.9-.21-6.12,1.69-6.12,4.86a3.69,3.69,0,0,0,3.91,4c4.75,0,6.33-4.33,6.33-9.08,0-9-9.29-11.08-7.81-20.47l7.6-47.7h-5.59l.21-1Z"/><path d="M360.23,61.61c0,17.52-15.83,33.14-34.62,33.14-15.09,0-25.54-9.92-25.54-23.85,0-18.05,15.52-33,34.51-33C349.67,37.87,360.23,47.68,360.23,61.61ZM340.81,49.69c0-6.23-1.37-11-6.33-11-11.61,0-15.09,33.35-15.09,44.32,0,6.23,1.47,10.87,6.33,10.87C337.43,92.43,340.81,62.14,340.81,49.69Z"/><path d="M373.52,17.82c.32-2.11-1.37-3.7-4.33-2.75l-.31-.31C372.57,13,380,10.64,385,10.64c6,0,8.13,2.22,7,9.39l-8.23,51.5c-1.27,7.39-3.8,20.9-.22,22.69l-.31.32c-7.6,1.16-22.27.74-19.42-16.26Z"/><path d="M398.74,45c.32-2.11-1.37-3.69-4.33-2.74L394.1,42c3.69-1.79,11.08-4.11,16.14-4.11,6,0,8.13,2.21,7,9.39l-4,24.27c-1.27,7.39-3.7,20.37.21,22.16l-.32.32a39.74,39.74,0,0,1-7.7.84c-8,0-14.35-3.58-12.14-16.57Zm4.64-11.61c2.22-3.48,3.28-11.5.11-15.51,2.53-4.64,7.39-7.6,11.71-7.6,4,0,8.76,2.43,8.76,8.34,0,8.23-9.5,15.51-20.37,15.09Z"/><path d="M482,61.61c0,17.52-15.83,33.14-34.61,33.14-15.09,0-25.54-9.92-25.54-23.85,0-18.05,15.51-33,34.51-33C471.45,37.87,482,47.68,482,61.61ZM462.58,49.69c0-6.23-1.37-11-6.33-11-11.61,0-15.09,33.35-15.09,44.32,0,6.23,1.48,10.87,6.33,10.87C459.21,92.43,462.58,62.14,462.58,49.69Z"/></svg>