<svg id="Layer_1" data-name="Layer 1" xmlns="http://www.w3.org/2000/svg" width="466" height="178" viewBox="0 0 466 178"><title>Artboard 1</title><path d="M25.81,29.72c6-4.36,11.52-2.86,14.44,1.13C44,36,42.41,44,37.11,47.88c-3.34,2.45-8,2.3-9.84-2.16,3-2.06,2.76-6,1-8.38a5.9,5.9,0,0,0-8.13-.9C13.75,41.12,19,52.2,21.82,57.62l14,27.21c9.07,17.57-4.71,30.05-4,48.1h.06c.74-12.7,4.93-21.29,11.25-25.92,14.95-11,44.79-12.17,57.28-21.31,3.12-2.29,4.67-4.59,4.86-8.36l.2,0c2.39,14.54-1.46,22.83-8.51,28-14.73,10.8-43.61,7.69-61,20.4-2.54,1.86-4.1,3.84-3.92,8.95l-.3.05c-1.1-10,3-17-4.06-30.82L17,82.82C9,67,10,41.31,25.81,29.72Z"/><path d="M95.17,55c1.88,7.63,5.17,19.11,9.36,17.12l0,.22a30.67,30.67,0,0,1-5.6,3.15c-7,3.08-14.34,2.82-16.54-8.55L79.62,53l-.19,0c3.85,22.79-.07,31.1-7.48,34.37-8.65,3.8-15.07-2.51-18.4-10.09-5.77-13.09-.61-34.54,13.23-40.63,6.59-2.9,13.7-1.71,17.9-3.56,2-.89,3.34-2.45,3.61-5.52ZM70.34,75c1.49,3.38,4.18,6.47,6.32,5.53,5-2.22,4.8-17.46,1.61-30.51L77,44.61c-1.1-4.63-3.09-10.49-7.45-8.56C61.39,39.62,64.52,61.79,70.34,75Z"/><path d="M121.15,58.06c.09,4.88,1.35,7.67,3.69,7.23,4.56-.86,8.57-13.11,9.35-26.91.36-6.38.59-18.51-2.89-19.23l.14-.21a66.23,66.23,0,0,1,7.41-1.77c7-1.31,10.68,1.06,10.8,12.35l.14,14.35c.06,7.86.75,19.77,5.28,18.78l-.1.2a29.93,29.93,0,0,1-6.16,1.81c-7.52,1.42-14.51-.47-14.27-12l.28-14.07-.28,0c-1.68,23.9-8.79,30.6-16.75,32.1-10.66,2-12.44-7.18-12.56-13.38l-.58-27.37c0-2.64-1.55-3.37-4.22-1.72l-.15-.11c2.81-2.08,8.63-5.2,12.88-6,5-.95,7.16.57,7.32,6.77Z"/><path d="M190.86,16.92c-5.58,0-12.07,13.25-15.05,26.81-1.35,6.22-3.89,17.75-.6,19.08L175,63a24.54,24.54,0,0,1-6,.75c-7.1,0-12-2.94-10.11-14.07l4.86-28.37c.44-2.61-.92-3.6-3.83-2.45l-.14-.14c3.14-1.55,9.43-3.56,13.75-3.59,5.13,0,7.52,1.94,6.16,8L175,43.47l.27.09c6-23.26,12.92-29.24,21.11-29.29,7.56,0,11.28,5,11.31,10.37,0,6-4.43,12.09-12.44,12.14-4.05,0-7.93-2.48-7.42-7.88,3.33,0,6.64-2.83,6.61-7.37C194.43,19.46,193.51,16.9,190.86,16.92Z"/><path d="M252.87,50c-2.4,7.49-5.62,19-1,19.49l-.16.16a30,30,0,0,1-6.41-.25c-7.58-1-13.7-5.11-9.62-15.95l5-13.35-.17-.07c-8.68,21.43-16.37,26.46-24.39,25.36-9.36-1.29-11.52-10-10.39-18.24,1.95-14.18,17.59-29.75,32.57-27.68,7.13,1,12.57,5.73,17.11,6.35,2.19.3,4.14-.34,6-2.81Zm-31.63,4c-.5,3.66.17,7.7,2.48,8,5.44.75,13.24-12.35,17.37-25.13l1.73-5.31c1.48-4.52,2.86-10.55-1.87-11.2C232.17,19.18,223.21,39.7,221.24,54Z"/><path d="M244.12,113c0-4-2.58-7.14-6.65-7.15a7.17,7.17,0,0,0-7,5.1c-5-.36-7.5-3.81-7.49-8.17a10.24,10.24,0,0,1,10.44-10.37c5.88,0,12,4.74,11.95,14.89-.06,20.4-19.52,41.15-36.58,51.08l-.26-.51a6.47,6.47,0,0,0,1.11-3.52c0-3.69-2.16-8.44-4.66-13.82a75,75,0,0,1-20.62,17.77l-.25-.51a6.31,6.31,0,0,0,1-3.52c0-9-16.88-22.38-16.83-38.58.05-12.67,12-18.55,23.9-19.35v-.08c-5.5.19-10.86-2.09-15.93-4.21s-10.39-4.27-15.76-4.28c-4.58,0-8.66,2.53-8.67,7,0,4,2.92,5.3,5.52,5.31a8.12,8.12,0,0,0,6.39-3.34c9.81,4.48,3.39,16.8-6.43,16.77A12.2,12.2,0,0,1,145,101.32c0-7.8,6.5-13.91,15.57-13.88,10.66,0,20.78,8.46,30.77,8.49,1.85,0,2.69-1.08,2.69-2.09,0-1.34-1.42-2.69-3.77-1.27a4.49,4.49,0,1,1,8.48-2c0,2.85-3.7,4.14-5.13,5.35-5.64,4.43-7.59,10.38-7.61,17,0,12.68,7,26.88,7,33.43,0,4.11-3.38,7.2-8.18,11.22l0,.08a75.64,75.64,0,0,0,20-17.43c-3.38-7.27-7.3-15.68-7.27-24.15,0-10.24,5.84-15.09,11-15.08,4.45,0,8.63,3.89,8.61,11.78a35,35,0,0,1-3.66,14.38c2.08,7,5,13.32,5,18,0,4.91-4.69,8.55-9.48,12.56l0,.08c11.9-7,24.61-19.13,31.32-32.62C242.37,121.32,244.1,116.92,244.12,113ZM213.4,126.76a34.48,34.48,0,0,0,3.48-14c0-2.6-.73-6-2.58-6-2.52,0-2.91,5.32-2.92,7.84A42.17,42.17,0,0,0,213.4,126.76Z"/><path d="M288,129.84c-.48,7.31-.8,18.45,3.48,17.86l-.11.18a28,28,0,0,1-5.86,1.22c-7.09.76-13.54-1.54-12.29-12.27l1.53-13.21-.17,0c-3,21.34-8.85,27.63-16.36,28.43-8.76.94-12.68-6.49-13.51-14.16-1.42-13.27,9.22-30.88,23.24-32.38,6.68-.72,12.66,2.35,16.92,1.89,2.05-.22,3.67-1.24,4.78-3.89Zm-27.72,10.74c.37,3.42,1.89,6.93,4.06,6.7,5.09-.55,9.2-14.16,10-26.66l.37-5.19c.33-4.42.22-10.19-4.21-9.72C262.28,106.59,258.79,127.19,260.23,140.58Z"/><path d="M312.44,125.76c.08,6,.05,16.53,3.11,17.44l-.05.18a28.33,28.33,0,0,1-5.67,1.69c-6.2,1.1-11.95-.78-12.06-11.24l-.34-26.8c-.06-2.46-1.42-3.16-3.92-1.65l-.15-.1c2.65-1.92,8.11-4.77,12.08-5.48,4.71-.84,6.67.61,6.76,6.39ZM299.6,97.43c1.25-3,.8-9.61-2.23-12.3,1.33-4,4.72-7,8.11-7.59,3.14-.56,7.2.68,8,5.31,1.15,6.44-4.88,12.81-13.85,14.66Z"/><path d="M336.32,120.08l.26,0c-.06-22.35,6.51-29.17,13.81-31.11,9.78-2.59,11.65,5.94,12.18,11.71l1.11,12c.63,7.3,2.2,17.48,6.19,17.12l-.12.2a34.37,34.37,0,0,1-5.76,2.18c-6.7,1.77-13.11.35-14.19-10.26l-2.09-21c-.46-4.52-1.37-7.15-3.52-6.58-4.18,1.11-7.49,12.89-7.28,25.77.1,6,.63,16.95,3.91,17.38l-.12.2a53.9,53.9,0,0,1-6.68,2.47c-6.41,1.7-10-.25-10.89-10.75l-2.23-26.76c-.22-2.46-1.67-3-4-1.32l-.15-.09c2.47-2.13,7.68-5.42,11.57-6.46,4.63-1.22,7.25,0,7.43,5.76Z"/><path d="M394.08,78.71c-1.26-3-3.49-4.86-6.55-3.58-6.85,2.87-6.28,15.64-3,23.58,3.2,7.62,9.53,13.07,17.62,9.68a16.55,16.55,0,0,0,9.27-10.89l.25,0c-1.51,10.09-7.32,19.26-16.3,23-9.37,3.92-18.62.52-23-9.86-5.54-13.24.77-29.9,15.48-36.06,6-2.52,15.49-4.75,18.5,2.45,2.4,5.73-1.08,15.47-22.23,18.41v-.09C396,92.1,396.39,84.21,394.08,78.71Z"/><path d="M429.88,52.87c-4.38,2.81-2.9,16.46,1.52,28.64,2,5.57,5.78,15.93,9,15.34l-.05.23a22.54,22.54,0,0,1-4.37,3.6c-5.58,3.58-10.95,3.69-15-6L410.71,69.85c-1-2.27-2.52-2.37-4.25,0l-.17,0c1.7-2.79,5.65-7.52,9-9.69,4-2.59,6.89-2.23,8.84,3.2l6.46,18.39.26-.06c-6.86-21.33-4.41-29.49,2-33.61,5.93-3.81,11.37-1.71,14.09,2.53a11.19,11.19,0,0,1-3.75,15.77c-3.18,2-7.48,2-9.78-2.5,2.61-1.68,3.82-5.55,1.53-9.12C434,53.09,432,51.53,429.88,52.87Z"/></svg>